# xmcd CD database file
#
# Track frame offsets:
#	151
#	11292
#	30647
#	45145
#	59186
#	71735
#	87909
#	108988
#	126096
#	154870
#	177329
#	196634
#	209434
#	228418
#	242781
#	270109
#	283465
#	294118
#	320739
#
# Disc length: 4469 seconds
#
# Revision: 0
# Processed by: cddbd v1.5.1PL2 Copyright (c) Steve Scherf et al.
# Submitted via: CDex 1.51
#
DISCID=0b117313
DTITLE=Will Keeris - Homebrew
DYEAR=1997
DGENRE=Blues
TTITLE0=Lookin' out my backdoor
TTITLE1=Hold on
TTITLE2=Every time I see her
TTITLE3=Rock'n Roll Junkie
TTITLE4=I got the love
TTITLE5=Paralyzed
TTITLE6=Slidin' home
TTITLE7=Coconut
TTITLE8=Watermelon man
TTITLE9=Hideaway
TTITLE10=Nothing ever happens
TTITLE11=Love gets strange
TTITLE12=What side of the door am I on ?
TTITLE13=Parachute
TTITLE14=The thrill is gone
TTITLE15=I'll be there
TTITLE16=Somebody changed the lock on my door
TTITLE17=St James infirmary
TTITLE18=?
EXTD=YEAR: 1997
EXTT0=
EXTT1=
EXTT2=
EXTT3=
EXTT4=
EXTT5=
EXTT6=
EXTT7=
EXTT8=
EXTT9=
EXTT10=
EXTT11=
EXTT12=
EXTT13=
EXTT14=
EXTT15=
EXTT16=
EXTT17=
EXTT18=
PLAYORDER=
